<svg width="201" height="48" viewBox="0 0 201 48" fill="none" xmlns="http://www.w3.org/2000/svg">
<g clip-path="url(#clip0_7_2)">
<path d="M34.551 46.9551C34.551 47.0562 34.5848 47.0225 34.4836 47.0225C34.4836 46.7865 34.4499 47.0225 34.551 46.9551ZM46.5511 0H46.7196C47.0904 0.0337079 47.36 0.303371 47.4275 0.640449C47.5286 1.11236 47.3937 0.808989 47.6297 1.17978C47.8319 1.48315 47.7982 1.95506 47.4949 2.22472C47.1241 2.5618 46.6185 2.22472 45.7084 2.62921C45.4387 2.76405 45.5398 2.79775 45.3713 3C45.2364 3.16854 45.1353 3.20225 44.9668 3.33708C44.6634 3.53933 44.5623 3.8427 44.2589 4.04494C44.1241 4.14607 43.9555 4.21348 43.8207 4.31461C43.214 4.7191 43.0791 4.82022 42.2027 4.82022C42.2701 5.1236 42.6072 5.5618 42.7421 6.13483C43.1466 8.08989 40.8207 9.74157 38.8319 7.88764C38.5286 7.58427 38.2589 7.21348 37.9555 6.91011C36.7421 5.76405 36.0679 6.70787 36.405 7.75281C36.5398 8.22472 36.8095 8.59551 37.0454 8.96629C37.2814 9.33708 37.551 9.67416 37.8207 10.0449L41.3937 13.8876C41.5623 14.0562 41.6634 14.191 41.8319 14.3933C42.2701 14.8652 42.7084 15.4045 43.0791 15.9438C43.214 16.1461 43.3151 16.2809 43.4499 16.4831C44.4275 18.0674 45.0005 19.618 44.3937 21.5056C43.4162 24.6742 39.9443 26.2921 36.7421 25.2135C36.5735 25.1461 36.169 24.9775 36.0679 25.0112L34.787 25.5843C33.3039 26.1236 31.5173 26.3258 29.9668 25.8876C29.4949 25.7528 28.9218 25.4494 28.6859 25.382C28.4499 25.7865 28.0117 26.1236 27.6072 26.3596C25.7533 27.5393 24.2364 27.3708 23.023 27.9438C23.6971 29.2247 25.551 29.5281 26.6297 28.6854C27.0342 28.3483 27.0679 27.7416 27.6072 27.6405C29.1578 27.3708 28.8207 29.9663 26.8657 30.9775C25.5173 31.6517 23.8994 31.5843 22.5848 30.8427C21.7084 30.3708 21.3039 29.7978 21.1016 29.6292C20.8994 30.0674 20.8319 30.8427 21.0005 31.382C21.6409 33.3708 24.8769 32.6966 26.4612 32.3933C28.1803 32.0562 29.8319 31.5506 31.551 31.3146C32.4612 31.1798 33.6072 31.1124 34.4836 31.2135C36.0679 31.4157 37.6185 32.0899 38.36 33.5393C38.9331 34.6517 38.9668 35.7303 38.596 36.9101C38.2252 37.9888 37.5848 38.5955 36.6409 39.0674C36.8769 39.4045 37.0454 39.5056 37.1803 39.9775C37.4499 40.7865 37.1466 41.5281 37.2477 41.8652C37.3488 42.1011 37.3825 42.1348 37.4162 42.4382C37.4836 42.9438 37.0117 44.1236 36.7084 44.4944C36.5061 44.7303 36.5735 44.6292 36.4387 44.9663C36.2701 45.3708 36.0342 45.4382 36.0005 45.9101C35.9668 46.0787 35.8994 46.3483 35.9331 46.5169C36.0005 46.8876 36.2702 47.191 36.0005 47.6292C35.8994 47.8315 35.6971 48 35.4275 48.0337H35.2252C35.1578 48.0337 35.0904 48 35.023 47.9663C34.6522 47.7978 34.9555 47.8315 34.5173 47.8989C34.3488 47.9326 34.1466 47.8652 34.0117 47.764C33.7421 47.5955 33.5398 47.191 33.7421 46.7528C33.9443 46.3146 34.0791 46.2809 34.1803 45.7753C34.214 45.4719 34.2814 45.4045 34.1803 45.2023C34.0791 45 34.0117 44.8989 34.0117 44.6629C33.978 44.2584 34.0117 44.3933 33.8769 44.0562C33.7421 43.7191 33.7421 43.2472 33.7084 42.9438C33.6746 42.7079 33.6746 42.4719 33.7084 42.236C33.7421 41.7978 33.978 41.5955 34.1803 41.2921C33.7084 41.3933 33.0679 41.2584 32.6634 41.1236C32.2589 40.9888 31.8544 40.6854 31.6522 40.3483C31.0791 39.5393 31.1803 38.3596 31.787 37.7191C33.0005 36.4382 35.2589 36.8427 35.4275 36C35.5623 35.3596 35.1578 35.0899 34.7533 34.9213C33.3376 34.382 29.8994 35.3258 28.6522 35.6292C26.3263 36.2022 24.8769 36.573 22.4836 36.573C18.405 36.573 15.7758 32.2584 17.6971 28.3483C18.0679 27.573 18.6746 26.8989 19.2477 26.3596C19.4162 26.2247 19.6522 26.1236 19.6859 25.8876C19.8207 25.0112 19.6522 24.8764 20.023 23.5955C20.2926 22.6517 20.6297 21.8764 21.1353 21.1685C21.3376 20.8652 21.6746 20.427 21.9443 20.191C22.1803 19.9888 22.6859 19.5169 22.9555 19.4494C22.9555 19.2135 22.8207 18.9101 22.787 18.6404C22.5173 17.2921 22.8544 15.8427 23.2589 14.6292C23.36 14.2921 23.5286 13.382 23.6297 13.1461C23.0904 13.1461 22.9218 13.2135 22.5173 13.382C22.214 13.5506 21.9443 13.7191 21.7421 13.9551C20.4275 15.573 21.5398 16.5506 21.5735 16.9213C21.6409 17.3258 21.3376 17.6629 21.1016 17.764C20.4275 18.0674 19.6859 17.191 19.4499 16.8539C19.0791 16.2472 18.9106 15.6067 19.0454 14.6966C19.2477 13.2472 19.9892 12.2022 21.1353 11.427C21.5061 11.191 22.4836 10.6854 23.023 10.6854C22.9218 10.2809 22.1466 9.8764 21.7758 9.74157C21.1016 9.50562 20.4275 9.77528 20.0567 10.0787C19.2814 10.7191 18.7421 11.7303 18.3713 12.7753C17.596 14.9326 17.0567 17.2584 16.1466 19.382C15.8095 20.191 15.4387 20.8315 14.9331 21.5056C14.4612 22.1461 13.8881 22.6517 13.214 23.0562C11.023 24.3371 8.2252 23.1573 7.41622 21.1685C7.14655 20.4944 7.11285 20.2247 7.11285 19.3146C6.37127 19.6854 5.42745 19.2135 4.88813 18.7753C4.14655 18.1685 3.84318 18.7079 3.0679 17.6292C2.96678 17.4607 2.83195 17.3933 2.69711 17.2247C2.49487 16.9551 2.39374 16.5169 2.15779 16.2472C1.75329 15.809 2.12408 15.8427 1.55105 15.3708C0.775766 14.764 0.438688 15.1348 0.101609 14.5955C-0.134346 14.1573 0.0004853 13.8202 0.303856 13.5506C0.40498 13.4831 0.371272 13.5169 0.438688 13.4831C0.674643 13.2809 0.607227 12.9438 1.01172 12.7416C1.92183 12.3371 2.05667 13.4157 2.46116 13.7528C2.69711 13.9551 2.83195 14.1236 3.16902 14.1573C3.64093 14.191 3.77577 14.3933 4.3488 14.4944C4.71959 14.5618 5.56228 15 5.86565 15.2022C6.20273 15.4382 6.27015 15.6404 6.4724 16.0112C6.74206 15.809 7.21397 14.3933 8.59599 14.3596C9.80947 14.3258 10.5173 14.9326 10.8207 15.8427C11.3937 17.4607 9.40498 19.7528 10.9218 20.0562C12.6746 20.427 14.1578 14.2584 14.596 12.6404C14.7308 12.2022 14.8994 11.6966 15.0679 11.2584C15.9443 8.62921 17.5286 5.83146 20.6634 5.69663C20.8994 5.69663 20.9331 5.66292 21.0679 5.66292L22.2814 5.83146C24.6746 6.4382 26.2252 8.19101 26.8319 10.5506C26.9668 11.0562 26.8319 11.2247 27.3039 11.4944C27.978 11.8989 28.5173 12.4382 29.0567 12.9775C29.5286 13.4494 29.8657 14.0225 30.2027 14.5955C30.7084 15.4045 31.0117 16.4831 31.0454 17.4607C31.6522 17.5955 32.1241 17.764 32.6634 18.0674C33.6072 18.573 34.2814 19.3483 35.023 20.0899C35.2589 20.3258 35.8319 21.0337 36.1353 21.1348C36.169 20.9663 36.2702 20.8652 36.3376 20.6629C36.7421 19.4831 36.1016 18.1348 34.9893 17.6629C34.4836 17.4607 34.2477 17.6292 33.9106 17.5281C32.9668 17.2247 33.1016 15.9101 34.8207 15.7416C36.8769 15.5393 38.5623 17.6629 38.8319 19.618C38.8994 20.2247 38.8319 20.8652 38.6971 21.4045C38.6634 21.573 38.596 21.7416 38.596 21.9101C39.1353 21.9101 39.8769 21.4719 40.1128 21.1685C41.4949 19.5169 39.405 17.2584 38.36 16.0112L37.2814 14.8652C36.6746 14.2584 35.4949 12.9438 34.9218 12.236C34.8207 12.1348 34.787 12.0674 34.6859 11.9663C33.5735 10.5169 31.9218 7.88764 33.1353 5.46067C33.9106 3.91011 35.6297 2.96629 37.4162 3.20225C38.4612 3.33708 38.596 3.70787 39.0005 3.80899C39.169 3.06742 39.7084 2.59551 40.3488 2.25843C41.2252 1.82022 40.5848 2.35955 41.2252 1.7191C41.5286 1.41573 41.6634 1.31461 42.1353 1.21348C42.3376 1.17978 42.5735 1.14607 42.7421 1.11236C43.1803 1.04494 44.3263 1.04494 44.6971 1.07865C44.9331 1.11236 45.1016 1.01124 45.2702 0.94382C46.0791 0.505618 46.0791 0.0337079 46.5511 0ZM35.2589 47.0562C35.2926 47.1236 35.3263 47.0899 35.2589 47.191L35.1915 47.0562L34.9555 46.5843C34.6859 46.7191 34.7533 46.8202 34.5173 46.9551C34.7533 46.2809 34.8544 46.8202 35.023 45.0674C34.8881 44.8989 34.7533 44.8652 34.7196 44.5618C34.6522 43.8876 34.4499 43.7528 34.4499 43.1798C34.4499 42.8764 34.3825 42.7416 34.4162 42.4719C34.4499 41.9326 34.8881 41.7978 34.9893 41.3933C35.36 39.809 32.5286 41.3596 32.023 39.5393C31.4499 37.4157 34.6859 37.7528 35.6971 36.8764C36.405 36.3034 36.2027 35.1573 35.6297 34.618C34.4836 33.573 31.6522 34.1124 30.169 34.4494C27.0342 35.1573 22.1803 36.9438 19.551 34.8202C18.5061 33.9775 17.4612 32.3258 17.8319 30.1685C18.0679 28.7191 19.214 27.0337 20.4612 26.3596C20.36 24.7753 20.7308 23.427 21.3713 22.2135C21.9106 21.2022 22.8544 20.0562 24.0005 19.7528C23.9331 19.5169 23.7308 19.3146 23.6297 18.9775C23.2926 18.0674 23.3937 16.9888 23.596 16.1124C23.8657 14.8989 24.405 13.8539 24.405 12.5393C24.169 12.2022 22.7533 12.4382 22.4162 12.573C21.8095 12.809 21.3713 13.1798 21.0679 13.5506C20.7308 13.9888 20.4612 14.4607 20.36 15.1348C20.2252 16.0787 20.4612 16.2809 20.7308 17.0225C20.4949 16.9213 20.1915 16.5506 20.0567 16.3146C19.0791 14.4607 20.7982 11.3258 24.2364 11.3258C24.2364 10.4157 22.8544 9.13483 21.7421 8.93258C20.0904 8.59551 19.1466 9.80899 18.5735 10.618C16.4836 13.5843 16.0454 22.9213 11.1241 22.8539C9.64093 22.8202 8.59599 21.8764 8.15779 20.8989C7.85442 20.2247 7.85442 19.5843 8.02296 18.809C8.2252 17.8989 8.69712 17.2921 8.42745 17.0562C8.1915 17.0899 8.12408 17.2921 8.02296 17.4944C7.75329 18.0674 7.3488 18.573 6.60723 18.6742C6.03419 18.7416 5.66341 18.4719 5.36004 18.236C5.1915 18.1011 5.09037 17.9326 4.85442 17.8652C4.3488 17.6966 4.01172 17.8315 3.70835 17.2921C3.53981 17.0225 3.4724 17.0225 3.30386 16.8202C3.16902 16.6517 3.13532 16.4494 3.03419 16.2135C2.89936 15.9775 2.79824 15.9101 2.69711 15.7416C2.46116 15.3708 2.79824 15.4045 2.42745 15.1348C1.75329 14.6292 1.65217 14.3933 0.775766 14.2247L1.44992 14.191L1.3488 13.5169C1.51734 13.9888 1.71959 14.191 2.12408 14.4944C3.13532 15.3371 2.66341 14.7978 3.27015 14.9663C3.5061 15.0337 3.60723 15.1685 3.94431 15.236C4.24768 15.3034 4.41622 15.2697 4.65217 15.4382L5.2252 15.7416C5.89936 16.0787 5.76453 17.1236 6.53981 17.0899C7.01172 17.0899 7.14655 16.5169 7.38251 16.1461C7.85442 15.4045 8.6297 14.7978 9.67464 15.5056C10.551 16.1124 10.0117 17.427 9.77577 18.2697C9.40498 19.4831 9.4724 20.2921 10.4499 20.764C12.2364 21.6067 13.5173 18.7416 14.023 17.4607C15.2364 14.1573 15.978 9.20225 18.3039 7.44944C19.8544 6.30337 22.0117 6.13483 23.7645 7.24719C24.5061 7.7191 25.0454 8.29213 25.4836 9.06742C26.2926 10.4831 26.0904 11.6629 26.4275 11.8652C26.9668 12.236 27.2027 12.236 27.8769 12.8427C29.36 14.1573 30.5061 15.9438 30.2364 18.236C31.8544 18.1348 32.9331 19.0787 33.7084 19.7865C33.978 20.0225 34.1128 20.2247 34.3151 20.4607C35.1915 21.3708 35.2589 21.4382 36.2701 22.1798C36.6072 21.9438 37.0117 21.236 37.1466 20.6629C37.4836 19.382 36.9106 18.0674 35.9331 17.2921C35.2926 16.7865 34.8881 16.8202 34.1466 16.7191C35.8319 15.7079 38.2589 17.8989 38.023 20.5281C37.9555 21.4719 37.6859 21.8764 37.3488 22.5843C38.2589 23.0899 40.214 22.3483 40.8881 21.3371C41.6634 20.1573 41.1578 18.6067 40.5173 17.5618C40.1128 16.9213 39.6409 16.2809 39.169 15.7753L36.5061 12.8764C35.5286 11.8989 34.5173 10.5843 33.9106 9.23596C32.4275 5.89888 34.8881 3.33708 37.5173 3.94382C39.0679 4.31461 39.7758 5.89888 40.0791 6.03371C40.7196 6.30337 39.9106 5.1236 39.8432 4.92135C39.5061 4.01124 39.8432 3.20225 40.7533 2.83146C41.5286 2.52809 41.1578 2.83146 41.7308 2.19101C42.0342 1.85393 42.4387 1.85393 42.9443 1.75281C43.2814 1.68539 43.4162 1.75281 43.7196 1.78652C43.9893 1.82022 44.1915 1.68539 44.4275 1.7191C44.7645 1.75281 44.6297 1.92135 45.0342 1.78652C45.3376 1.65169 45.9443 1.48315 46.1803 1.2809C46.3488 1.14607 46.3825 1.01124 46.5511 0.876404C46.4836 1.07865 46.3488 1.21348 46.2814 1.38202C46.4162 1.48315 46.6859 1.51685 46.8881 1.55056C46.3488 1.65169 46.3825 1.44944 45.7421 1.7191C45.4387 1.85393 45.1016 1.92135 44.8657 2.08989C44.7645 2.39326 44.7982 2.46067 44.5286 2.62921C44.1578 2.86517 43.9892 3.26966 43.6185 3.47191C43.5173 3.53933 43.4162 3.53933 43.3488 3.60674C43.214 3.67416 43.214 3.70787 43.1128 3.80899C42.5735 4.24719 42.2027 3.8427 41.6634 4.01124C41.1915 4.14607 41.0567 4.61798 41.3263 5.05618C41.7982 5.79775 42.2701 6.74157 41.5286 7.51685C40.7196 8.35955 39.7084 7.78652 39.169 7.21348C38.7645 6.74157 38.0567 5.86517 37.2814 5.62921C36.3039 5.35955 35.4275 6.23596 35.4275 7.14607C35.4275 8.66292 36.9443 10.5169 37.9218 11.4944C38.0567 11.6292 38.1915 11.7978 38.3263 11.9663C38.4612 12.1348 38.6297 12.236 38.7645 12.4045C39.3376 13.0112 40.3825 14.0225 40.8544 14.6292L41.6297 15.5393C42.5398 16.618 43.5173 18 43.6859 19.4831C43.9555 21.7416 42.6072 23.3258 41.3937 24.0674C40.1803 24.809 38.596 24.9775 37.1466 24.6067C36.7084 24.5056 36.2364 24.236 35.8657 24.1685C35.596 24.3034 35.4275 24.4719 35.0904 24.6404C34.8207 24.7753 34.4836 24.9101 34.214 25.0112C32.596 25.5506 30.6409 25.6517 29.0904 24.8427C28.8207 24.7079 28.5848 24.5056 28.3488 24.3708C27.7084 26.0899 25.3488 26.5281 23.6971 26.9663C22.8207 27.2022 22.3825 27.4719 21.9106 27.6067C21.978 27.9438 22.1128 28.2472 22.2814 28.5169C22.787 29.3258 23.3937 29.8315 24.4724 30C25.8544 30.236 27.0679 29.6966 27.7084 28.5169C27.8432 30.2022 25.6185 30.8764 24.2701 30.7079C22.7196 30.5056 21.7758 29.5618 21.0005 28.3483C20.2926 29.0225 19.7196 30.5056 20.1915 31.8202C21.5061 35.2921 28.1803 32.764 30.8769 32.2921C33.7758 31.7865 36.6072 31.9551 37.6522 34.2472C38.1915 35.4607 37.8207 37.1124 37.0791 37.8202C35.5623 39.236 34.0791 38.6966 33.8432 39.1685C33.978 39.5056 34.4836 39.3034 34.8881 39.3371C36.0679 39.4382 36.5735 40.3146 36.2701 41.5955C36.169 42.0337 36.4724 42.2022 36.4724 42.6405C36.4724 42.9438 36.2702 43.3146 36.169 43.6517C36.0342 44.0562 35.8319 44.1236 35.6634 44.427C35.3937 45 35.6634 44.7978 35.1241 45.1685C35.0904 45.5393 35.023 45.8427 34.9893 46.2135C35.0567 46.618 35.1915 46.618 35.2589 47.0562ZM194.663 22.0449H187.517V14.6629H194.967C196.72 14.6629 198.068 16.0112 198.068 17.6629C198.068 19.1461 198.236 20.191 197.09 21.2697C196.484 21.7753 195.776 22.0449 194.663 22.0449ZM185.023 12.3708V34.1461C185.023 34.2809 185.057 34.3146 185.192 34.3146H187.517V24.5393H191.933C192.102 24.5393 192.574 25.4157 192.708 25.6854L195.54 30.6067C195.809 31.0112 196.012 31.4157 196.248 31.8539L197.697 34.3146H200.529C199.618 32.5955 198.304 30.5393 197.394 28.8539C197.124 28.3146 194.967 24.7416 194.933 24.5393C195.27 24.5393 195.809 24.4719 196.147 24.4045C196.551 24.3371 196.888 24.2022 197.191 24.0674C199.147 23.2584 200.529 21.2022 200.529 19.0787V17.6966C200.529 14.6966 198.068 12.236 195.068 12.236H185.192C185.09 12.2022 185.023 12.236 185.023 12.3708ZM71.2926 22.0449H64.1466V14.6629H71.6634C73.2814 14.6629 74.6634 16.0112 74.6634 17.427C74.6634 18.8427 74.8657 20.3258 73.6522 21.2697C73.3151 21.5393 73.1128 21.6742 72.6746 21.8427C72.2702 21.9775 71.7982 22.0449 71.2926 22.0449ZM61.6859 34.2809H64.1466V24.5056H68.5623C68.7308 24.5056 68.7982 24.7416 68.9668 25.0449C69.1016 25.2809 69.2027 25.4157 69.3376 25.6517C69.8769 26.6292 70.5848 27.7416 71.0904 28.7191L74.2926 34.2809H77.1241C77.0567 33.9775 75.978 32.2584 75.7421 31.8539L73.9893 28.8202C73.2477 27.5056 72.169 25.7865 71.4949 24.5056C72.2702 24.5056 73.1803 24.3371 73.7533 24.0674C74.0904 23.9326 74.36 23.7978 74.6297 23.5955C75.3713 23.0899 76.1466 22.2809 76.5511 21.5056C77.2926 20.0899 77.1241 18.8764 77.1241 17.2921C77.1241 16.2809 76.6522 15.1685 76.0791 14.427C75.0679 13.0449 73.5173 12.2022 71.7308 12.2022H61.6859V34.2809ZM123.371 14.6629H134.697L130.45 22.0112C129.034 24.4045 127.618 27.0337 126.203 29.3596C125.967 29.764 125.731 30.1348 125.495 30.573C125.259 31.0112 125.023 31.382 124.787 31.8202L123.371 34.3146H137.529C137.697 34.0112 138.877 32.0899 138.911 31.8539H127.618L128.326 30.6405C128.562 30.2022 128.798 29.8315 129.034 29.3933C130.18 27.4719 131.394 25.2135 132.54 23.2921L136.787 15.9438C136.989 15.6067 138.809 12.5056 138.877 12.236H123.371V14.6629ZM91.2814 34.2809H93.9443C94.0117 34.0112 94.214 33.6067 94.3151 33.3034L95.4949 30.4045C96.0005 29.1236 96.5398 27.8427 97.0791 26.5281L100.18 18.7753C100.383 19.0112 105.472 31.7865 106.079 33.2697C106.214 33.573 106.383 33.9775 106.45 34.2809H109.113L100.45 12.8764C100.416 12.7753 100.383 12.6742 100.315 12.5393C100.281 12.4382 100.281 12.4382 100.248 12.3708C100.214 12.2697 100.214 12.2697 100.147 12.2022L93.4724 28.7528C93.1016 29.6629 92.7308 30.573 92.36 31.4831C92.1915 31.9213 91.9892 32.427 91.787 32.8652L91.2814 34.2809ZM154.214 14.6629H168.338C168.405 14.2921 169.652 12.5393 169.686 12.2022H154.248L154.214 14.6629ZM154.214 34.2809H168.338C168.371 34.0787 169.517 32.191 169.72 31.8202H154.214V34.2809ZM154.214 24.3371C154.214 24.4719 154.248 24.5056 154.383 24.5056H168.169C168.338 24.5056 168.439 24.2022 168.607 23.9663L169.349 22.6854C169.484 22.4494 169.585 22.2472 169.72 22.0449H154.214V24.3371Z" fill="#00FF00"/>
<path d="M23.2585 24.3034C23.3596 23.899 23.7978 23.4608 24 23.1911C24.1686 22.9888 24.1349 23.0563 24.3034 22.8877C24.6405 22.5843 25.0113 22.3147 25.4832 22.2136C25.7191 22.1799 25.7866 22.2473 25.9214 22.3484C25.9214 23.0563 25.4158 23.3259 24.8427 23.5956C24.5731 23.7641 23.5618 24.2697 23.2585 24.3034ZM21.9102 25.6518C22.618 25.4495 24.5394 24.7079 25.1798 24.3372C25.7191 24.0338 26.1236 23.7641 26.4607 23.3596C27.6742 21.8765 25.618 20.3596 23.4607 22.6518C22.8203 23.3259 22.0787 24.3709 21.9102 25.6518ZM27.0675 18.4383H26.8989C26.2585 18.4383 26.4607 16.3484 26.4944 15.9776C26.5281 15.7079 26.5956 15.4046 26.5956 15.1012L26.6293 15.1686C26.663 15.236 26.663 15.2023 26.6967 15.2697C27.472 16.3821 27.6405 18.4383 27.0675 18.4383ZM26.1236 13.3484C25.9551 14.7978 25.1461 17.4607 26.0562 18.7754C26.3596 19.2136 26.9326 19.4495 27.5057 19.1124C28.7191 18.3372 28.0787 15.7754 27.1686 14.427C26.9326 14.1237 26.3596 13.3821 26.1236 13.3484ZM29.7978 21.5057C29.7978 20.5619 31.5506 21.6405 31.7191 21.7754L32.9326 22.6855C32.1573 22.6855 31.618 22.6181 31.045 22.4158C30.7753 22.3484 29.7978 21.9102 29.7978 21.5057ZM34.7191 23.1911L33.5394 22.1799C29.4944 18.6742 28.2809 21.1012 29.4944 22.3484C30.8764 23.7641 32.9663 23.5956 34.7191 23.1911Z" fill="#00FF00"/>
<path d="M21.9102 25.6518C22.0787 24.3709 22.8203 23.326 23.4608 22.6518C25.6181 20.3597 27.6742 21.9102 26.4608 23.3597C26.1237 23.7642 25.7192 24.0675 25.1799 24.3372C24.5394 24.708 22.6181 25.4495 21.9102 25.6518ZM34.7192 23.1911C33.0001 23.5956 30.9102 23.7979 29.4945 22.3484C28.2473 21.1012 29.4945 18.6406 33.5394 22.1799L34.7192 23.1911ZM26.1237 13.3484C26.3596 13.3821 26.9327 14.1237 27.1686 14.4271C28.0787 15.7417 28.7192 18.3035 27.5057 19.1125C26.9327 19.4833 26.3596 19.2473 26.0563 18.7754C25.1461 17.4608 25.9551 14.7979 26.1237 13.3484ZM34.5506 46.9552C34.7866 46.854 34.7192 46.7192 34.9888 46.5844L35.2248 47.0563H35.2922C35.2248 46.6181 35.09 46.6181 35.1574 46.1125C35.2248 45.7417 35.2585 45.4383 35.2922 45.0675C35.8315 44.6967 35.5619 44.8653 35.8315 44.326C36.0001 43.9889 36.2023 43.9552 36.3372 43.5507C36.4383 43.2473 36.6405 42.8428 36.6405 42.5394C36.6068 42.1349 36.3034 41.9327 36.4383 41.4945C36.7417 40.2136 36.236 39.3709 35.0563 39.2361C34.6518 39.2024 34.1124 39.3709 34.0113 39.0675C34.2473 38.5956 35.6967 39.1349 37.2473 37.7192C38.0225 37.0113 38.3596 35.3597 37.8203 34.1462C36.7754 31.854 33.9439 31.6855 31.045 32.1911C28.3484 32.663 21.6742 35.2248 20.3596 31.7192C19.854 30.4046 20.427 28.9215 21.1686 28.2473C21.9439 29.4608 22.8877 30.4046 24.4383 30.6069C25.7529 30.7754 27.9776 30.1012 27.8765 28.4158C27.236 29.5956 26.0225 30.1349 24.6405 29.899C23.5956 29.7304 22.9888 29.2248 22.4495 28.4158C22.281 28.1462 22.1461 27.8428 22.0787 27.5057C22.5506 27.3709 22.9888 27.0675 23.8652 26.8653C25.5169 26.4608 27.8765 25.9889 28.5169 24.2698C28.7866 24.3709 28.9888 24.5731 29.2585 24.7417C30.8091 25.517 32.7641 25.4495 34.3821 24.9102C34.6855 24.8091 34.9888 24.6743 35.2585 24.5394C35.5956 24.3709 35.7641 24.2361 36.0338 24.0675C36.3709 24.1349 36.8428 24.4046 37.3147 24.5057C38.7641 24.8765 40.3484 24.708 41.5619 23.9664C42.7754 23.2248 44.1237 21.6406 43.854 19.3821C43.6855 17.899 42.7079 16.5507 41.7978 15.4383L41.0225 14.5282C40.5169 13.9215 39.5057 12.9102 38.9327 12.3035C38.7978 12.1349 38.6293 12.0338 38.4945 11.8653C38.3596 11.6967 38.2248 11.5282 38.09 11.3934C37.1124 10.4158 35.5619 8.59562 35.5956 7.04505C35.5956 6.13494 36.472 5.25854 37.4495 5.5282C38.2248 5.73045 38.899 6.64056 39.3372 7.11247C39.8765 7.6855 40.8877 8.25854 41.6967 7.41584C42.4383 6.64056 41.9664 5.69674 41.4945 4.95517C41.1911 4.51696 41.3596 4.04505 41.8315 3.91022C42.3709 3.74168 42.7416 4.14618 43.281 3.70797C43.3821 3.64056 43.3821 3.60685 43.5169 3.50573C43.6181 3.43831 43.6855 3.43831 43.7866 3.3709C44.1574 3.16865 44.3259 2.76415 44.6967 2.5282C44.9664 2.35966 44.9327 2.32595 45.0338 1.98887C45.2697 1.82033 45.6068 1.75292 45.9102 1.61809C46.5169 1.38213 46.4832 1.55067 47.0563 1.44955C46.854 1.41584 46.5843 1.38213 46.4495 1.28101C46.5169 1.07876 46.6518 0.977638 46.7192 0.775391C46.5169 0.910222 46.4832 1.01135 46.3484 1.17989C46.1124 1.38213 45.5057 1.55067 45.2023 1.6855C44.8315 1.85404 44.9327 1.6518 44.5956 1.61809C44.3596 1.58438 44.1911 1.71921 43.8877 1.6855C43.5843 1.6518 43.4495 1.58438 43.1124 1.6518C42.6068 1.75292 42.2023 1.75292 41.899 2.09C41.3259 2.69674 41.7304 2.39337 40.9214 2.73045C40.0113 3.10123 39.6742 3.91022 40.0113 4.82033C40.0787 5.02258 40.8877 6.16865 40.2473 5.93269C39.9439 5.79786 39.236 4.21359 37.6855 3.84281C35.0563 3.23606 32.6293 5.79786 34.0787 9.13494C34.6855 10.4833 35.6967 11.7979 36.6742 12.7754L39.3372 15.6743C39.8091 16.1799 40.3147 16.8203 40.6855 17.4608C41.3259 18.5057 41.8315 20.0563 41.0563 21.2361C40.3821 22.2473 38.427 22.9889 37.5169 22.4833C37.8203 21.7754 38.09 21.3709 38.1911 20.4271C38.427 17.7979 36.0001 15.6069 34.3147 16.6181C35.0563 16.7192 35.4608 16.6855 36.1012 17.1911C37.0787 17.9664 37.6181 19.281 37.3147 20.5619C37.1799 21.1349 36.7754 21.8428 36.4383 22.0788C35.427 21.3035 35.3596 21.2698 34.4832 20.3597C34.2473 20.1237 34.1124 19.9215 33.8765 19.6855C33.1012 18.9776 32.0225 18.0338 30.4046 18.1349C30.6742 15.8765 29.5282 14.09 28.045 12.7417C27.3709 12.1349 27.1686 12.1349 26.5956 11.7642C26.2585 11.5619 26.4608 10.3484 25.6518 8.9664C25.2136 8.19112 24.6405 7.61809 23.9327 7.14618C22.1799 6.00011 20.0225 6.16865 18.472 7.34842C16.1124 9.10123 15.4046 14.0563 14.1911 17.3597C13.5169 18.708 12.236 21.5731 10.4495 20.6967C9.47199 20.2248 9.40457 19.4158 9.77536 18.2024C10.045 17.3597 10.5506 16.0451 9.67423 15.4383C8.62929 14.6967 7.85401 15.3372 7.3821 16.0788C7.14614 16.4495 7.01131 17.0226 6.5394 17.0226C5.76412 17.0563 5.89895 16.0113 5.2248 15.6743L4.65176 15.3709C4.41581 15.2361 4.24727 15.2361 3.9439 15.1686C3.60682 15.1012 3.50569 14.9664 3.26974 14.899C2.663 14.7642 3.13491 15.2698 2.12367 14.4271C1.75289 14.1237 1.55064 13.8878 1.34839 13.4495L1.51693 14.09L0.842773 14.1237C1.71918 14.2922 1.8203 14.4945 2.49446 15.0338C2.83154 15.3035 2.52817 15.2698 2.76412 15.6406C2.86525 15.8091 3.00008 15.8765 3.1012 16.1125C3.20232 16.3484 3.23603 16.5507 3.37086 16.7192C3.50569 16.9215 3.60682 16.9215 3.77536 17.1911C4.07873 17.6967 4.41581 17.5956 4.92143 17.7642C5.15738 17.8316 5.2585 18.0338 5.42704 18.1349C5.73041 18.3709 6.13491 18.6406 6.67423 18.5731C7.41581 18.5057 7.78659 18.0001 8.08996 17.3934C8.19109 17.1911 8.2585 16.9889 8.49446 16.9552C8.76412 17.1911 8.29221 17.8316 8.08996 18.708C7.92143 19.4495 7.92143 20.1237 8.2248 20.7979C8.663 21.7754 9.74165 22.7192 11.1911 22.7529C16.0787 22.8877 16.5169 13.5507 18.6068 10.5844C19.1799 9.77539 20.1574 8.56191 21.7754 8.89899C22.854 9.13494 24.236 10.3821 24.2697 11.2922C20.8315 11.2922 19.1124 14.4271 20.09 16.281C20.2248 16.517 20.5282 16.8878 20.7641 16.9889C20.4945 16.2473 20.2248 16.0451 20.3933 15.1012C20.4945 14.3934 20.7641 13.9552 21.1012 13.517C21.4046 13.1462 21.8428 12.7754 22.4495 12.5394C22.7866 12.4046 24.2023 12.1686 24.4383 12.5057C24.4383 13.8203 23.899 14.8653 23.6293 16.0788C23.427 16.9889 23.3259 18.0675 23.663 18.9439C23.7641 19.2473 23.9664 19.4833 24.0338 19.7192C22.8877 20.0226 21.9439 21.1687 21.4046 22.1799C20.7641 23.3934 20.3933 24.7417 20.4945 26.326C19.2473 27.0001 18.1349 28.6855 17.8652 30.1349C17.4945 32.2922 18.5057 33.9439 19.5843 34.7866C22.2136 36.9102 27.0675 35.1237 30.2023 34.4158C31.6855 34.0788 34.5169 33.5394 35.663 34.5844C36.2697 35.1237 36.4383 36.2361 35.7304 36.8428C34.6855 37.6855 31.4832 37.3821 32.0563 39.5057C32.5619 41.3597 35.3933 39.8091 35.0226 41.3597C34.9214 41.7642 34.4832 41.899 34.4495 42.4383C34.4158 42.708 34.4832 42.8765 34.4832 43.1462C34.4832 43.7192 34.6855 43.854 34.7529 44.5282C34.7866 44.8316 34.8877 44.8653 35.0563 45.0338C34.8877 46.8203 34.7866 46.281 34.5506 46.9552Z" fill="black"/>
</g>
<defs>
<clipPath id="clip0_7_2">
<rect width="200.528" height="48" fill="white"/>
</clipPath>
</defs>
</svg>
